<svg width="134" height="37" viewBox="0 0 134 37" fill="none" xmlns="http://www.w3.org/2000/svg">
<path d="M49.3166 10.2495C51.2898 10.2232 53.2088 10.9001 54.7349 12.1607L53.3503 14.7251C52.2271 13.7797 50.8122 13.2579 49.3486 13.2494C48.7022 13.2096 48.0546 13.3065 47.4476 13.534C46.8405 13.7614 46.2874 14.1143 45.8239 14.57C45.3603 15.0257 44.9965 15.5741 44.7558 16.18C44.5152 16.7858 44.403 17.4357 44.4266 18.0879C44.403 18.74 44.5152 19.3899 44.7558 19.9958C44.9965 20.6016 45.3603 21.15 45.8239 21.6057C46.2874 22.0614 46.8405 22.4144 47.4476 22.6418C48.0546 22.8693 48.7022 22.9662 49.3486 22.9264C50.8138 22.919 52.2299 22.3939 53.3503 21.4426L54.7349 24.015C53.2088 25.2757 51.2898 25.9525 49.3166 25.9262C44.1945 25.9262 41.0251 22.3135 41.0251 18.0718C41.0251 13.83 44.1945 10.2495 49.3166 10.2495Z" fill="black"/>
<path d="M63.7946 10.2496C65.3343 10.2607 66.8362 10.7311 68.1109 11.6012C69.3856 12.4714 70.376 13.7024 70.9572 15.1391C71.5384 16.5757 71.6843 18.1536 71.3766 19.6737C71.0689 21.1938 70.3213 22.588 69.2281 23.6805C68.1349 24.773 66.7451 25.5149 65.234 25.8125C63.7229 26.1101 62.1582 25.9501 60.7372 25.3528C59.3162 24.7554 58.1026 23.7475 57.2494 22.456C56.3963 21.1645 55.9418 19.6474 55.9434 18.096C55.9476 17.0614 56.154 16.0377 56.5508 15.0834C56.9476 14.1291 57.5271 13.263 58.2562 12.5344C58.9853 11.8058 59.8496 11.229 60.7999 10.8369C61.7502 10.4449 62.7678 10.2453 63.7946 10.2496ZM63.7946 22.8619C64.4064 22.8602 65.0116 22.7343 65.574 22.4917C66.1365 22.2492 66.6446 21.8949 67.0682 21.4501C67.4917 21.0052 67.822 20.479 68.0392 19.9027C68.2564 19.3265 68.3562 18.712 68.3325 18.096C68.3325 16.8812 67.8536 15.7161 67.0011 14.8571C66.1486 13.9981 64.9923 13.5156 63.7866 13.5156C62.581 13.5156 61.4247 13.9981 60.5722 14.8571C59.7197 15.7161 59.2407 16.8812 59.2407 18.096C59.216 18.7144 59.3154 19.3314 59.533 19.9102C59.7506 20.4889 60.082 21.0174 60.5073 21.4639C60.9325 21.9105 61.4429 22.2659 62.0078 22.5089C62.5727 22.7519 63.1804 22.8775 63.7946 22.8781V22.8619Z" fill="black"/>
<path d="M74.4791 25.7086V10.4915H81.1059C81.7579 10.4645 82.4082 10.5754 83.0151 10.817C83.622 11.0586 84.1719 11.4255 84.6295 11.8942C85.0872 12.3629 85.4423 12.923 85.6721 13.5383C85.9019 14.1537 86.0013 14.8107 85.9639 15.4671C85.9929 16.1151 85.8867 16.762 85.6521 17.3661C85.4175 17.9702 85.0597 18.5179 84.6018 18.9739C84.144 19.4299 83.5962 19.784 82.9941 20.0134C82.3919 20.2428 81.7486 20.3424 81.1059 20.3056H77.8245V25.6763L74.4791 25.7086ZM80.6497 17.6847C81.8422 17.6847 82.5705 16.7493 82.5705 15.4429C82.5705 14.1365 81.8662 13.2011 80.6497 13.2011H77.8245V17.7251L80.6497 17.6847Z" fill="black"/>
<path d="M85.6838 25.7085L91.5103 10.4915H94.7756L100.658 25.7085H97.1606L96.1122 22.878H90.1737L89.1413 25.7247L85.6838 25.7085ZM91.0781 20.1443H95.1598L93.151 14.0558L91.0781 20.1443Z" fill="black"/>
<path d="M108.437 25.7085H102.779V10.4915H108.437C113.375 10.4915 116.441 13.9026 116.441 18.096C116.441 22.2893 113.375 25.7085 108.437 25.7085ZM108.437 13.1607H106.124V23.0393H108.437C111.311 23.0393 113.095 20.8216 113.095 18.096C113.095 15.3703 111.311 13.201 108.437 13.201V13.1607Z" fill="black"/>
<path d="M126.269 10.2496C127.808 10.2623 129.309 10.734 130.583 11.6051C131.856 12.4762 132.846 13.7078 133.426 15.1446C134.006 16.5814 134.15 18.159 133.842 19.6785C133.533 21.1981 132.785 22.5916 131.691 23.6833C130.598 24.775 129.208 25.516 127.697 25.813C126.186 26.11 124.622 25.9495 123.201 25.352C121.781 24.7544 120.568 23.7464 119.715 22.4551C118.862 21.1638 118.408 19.6471 118.409 18.096C118.42 16.0057 119.254 14.0051 120.727 12.5339C122.201 11.0626 124.194 10.241 126.269 10.2496ZM126.269 22.8781C126.88 22.8764 127.485 22.7505 128.047 22.5078C128.609 22.2651 129.117 21.9107 129.54 21.4658C129.963 21.0208 130.292 20.4945 130.508 19.9182C130.725 19.342 130.823 18.7277 130.799 18.1121C130.824 17.495 130.726 16.879 130.509 16.3012C130.293 15.7233 129.962 15.1956 129.538 14.7498C129.114 14.3039 128.604 13.9492 128.04 13.7068C127.477 13.4645 126.87 13.3395 126.257 13.3395C125.644 13.3395 125.037 13.4645 124.473 13.7068C123.909 13.9492 123.4 14.3039 122.976 14.7498C122.551 15.1956 122.221 15.7233 122.004 16.3012C121.788 16.879 121.689 17.495 121.715 18.1121C121.691 18.7295 121.791 19.3453 122.01 19.9226C122.228 20.5 122.56 21.027 122.985 21.472C123.41 21.9171 123.92 22.271 124.484 22.5126C125.049 22.7542 125.656 22.8785 126.269 22.8781Z" fill="black"/>
<path d="M17.9115 36.0952C27.8037 36.0952 35.823 28.015 35.823 18.0476C35.823 8.08018 27.8037 0 17.9115 0C8.01925 0 0 8.08018 0 18.0476C0 28.015 8.01925 36.0952 17.9115 36.0952Z" fill="#00C3EF"/>
<path d="M24.8104 11.1527C23.8138 11.15 22.8284 11.3648 21.9221 11.7824C21.0157 12.2 20.2099 12.8106 19.5602 13.572C19.4075 13.7484 19.2658 13.9343 19.136 14.1284L17.6314 16.1041L14.43 20.3136L14.0779 20.7733L13.8538 21.0636C13.4834 21.4393 13.0415 21.7358 12.5547 21.9353C12.0679 22.1348 11.5461 22.2333 11.0206 22.2248C10.4821 22.2252 9.94898 22.1161 9.45329 21.9039C8.9576 21.6918 8.50951 21.381 8.13586 20.9902C7.76221 20.5994 7.4707 20.1367 7.27878 19.6296C7.08686 19.1226 6.99848 18.5818 7.01895 18.0395C6.99848 17.4973 7.08686 16.9565 7.27878 16.4494C7.4707 15.9424 7.76221 15.4796 8.13586 15.0889C8.50951 14.6981 8.9576 14.3873 9.45329 14.1751C9.94898 13.963 10.4821 13.8538 11.0206 13.8542C11.7153 13.8512 12.3982 14.035 12.9989 14.3865C13.5996 14.7381 14.0964 15.2447 14.438 15.8542L16.3268 13.6688C15.4614 12.6005 14.298 11.8182 12.9869 11.423C11.6758 11.0278 10.2771 11.0378 8.97168 11.4517C7.66623 11.8657 6.51396 12.6645 5.66371 13.745C4.81346 14.8256 4.3043 16.1382 4.20201 17.5133C4.09971 18.8884 4.40898 20.2628 5.08986 21.459C5.77074 22.6551 6.79194 23.6181 8.02156 24.2235C9.25117 24.8289 10.6327 25.0489 11.9877 24.855C13.3426 24.6612 14.6088 24.0624 15.6225 23.1361L21.425 15.7493C21.7763 15.1653 22.2725 14.6835 22.8647 14.3512C23.4568 14.0189 24.1246 13.8477 24.8024 13.8542C25.3409 13.8538 25.874 13.963 26.3697 14.1751C26.8654 14.3873 27.3135 14.6981 27.6871 15.0889C28.0608 15.4796 28.3523 15.9424 28.5442 16.4494C28.7361 16.9565 28.8245 17.4973 28.8041 18.0395C28.8041 19.1089 28.3824 20.1345 27.632 20.8906C26.8815 21.6468 25.8637 22.0716 24.8024 22.0716C23.7411 22.0716 22.7232 21.6468 21.9728 20.8906C21.2223 20.1345 20.8007 19.1089 20.8007 18.0395L18.5278 20.8701C19.0292 22.0087 19.8265 22.9899 20.8353 23.7099C21.8442 24.4299 23.0273 24.8622 24.2598 24.961C25.4922 25.0598 26.7283 24.8215 27.8375 24.2713C28.9467 23.7211 29.8879 22.8793 30.5617 21.8349C31.2356 20.7904 31.6171 19.5821 31.6659 18.3373C31.7148 17.0926 31.4293 15.8576 30.8394 14.7628C30.2496 13.668 29.3774 12.7539 28.3148 12.1171C27.2522 11.4803 26.0387 11.1443 24.8024 11.1447L24.8104 11.1527Z" fill="white"/>
<path d="M24.7944 19.3539C25.422 19.3539 25.9308 18.8413 25.9308 18.2088C25.9308 17.5764 25.422 17.0637 24.7944 17.0637C24.1667 17.0637 23.6579 17.5764 23.6579 18.2088C23.6579 18.8413 24.1667 19.3539 24.7944 19.3539Z" fill="white"/>
</svg>
